<svg xmlns="http://www.w3.org/2000/svg" viewBox="0 0 260 220" width="260" height="220"><rect x="20" y="20" width="220" height="140" rx="10" fill="#E8E8E8"/><g transform="translate(68.55,111.86)"><path d="M22.372 0.0H14.96Q9.588000000000001 0.0 6.664000000000001 -2.8560000000000003Q3.74 -5.712000000000001 3.74 -11.084000000000001V-32.64Q3.74 -38.012 6.664000000000001 -40.868Q9.588000000000001 -43.724000000000004 14.96 -43.724000000000004H22.372Q27.676000000000002 -43.724000000000004 30.634000000000004 -40.834Q33.592000000000006 -37.944 33.592000000000006 -32.64V-29.444000000000003Q33.592000000000006 -27.948 32.096000000000004 -27.948H26.384Q24.956000000000003 -27.948 24.956000000000003 -29.444000000000003V-32.232Q24.956000000000003 -34.408 24.038000000000004 -35.326Q23.12 -36.244 20.944000000000003 -36.244H16.32Q14.212000000000002 -36.244 13.294 -35.326Q12.376000000000001 -34.408 12.376000000000001 -32.232V-11.492Q12.376000000000001 -9.316 13.294 -8.398Q14.212000000000002 -7.48 16.32 -7.48H20.944000000000003Q23.12 -7.48 24.038000000000004 -8.398Q24.956000000000003 -9.316 24.956000000000003 -11.492V-14.280000000000001Q24.956000000000003 -15.776000000000002 26.384 -15.776000000000002H32.096000000000004Q33.592000000000006 -15.776000000000002 33.592000000000006 -14.280000000000001V-11.084000000000001Q33.592000000000006 -5.78 30.634000000000004 -2.89Q27.676000000000002 0.0 22.372 0.0Z" fill="#1A1A1A"/><path d="M64.82000000000001 0.0H55.912000000000006Q54.484 0.0 54.212 -1.4280000000000002L43.672000000000004 -42.160000000000004Q43.196000000000005 -43.724000000000004 45.032000000000004 -43.724000000000004H51.42400000000001Q52.784000000000006 -43.724000000000004 53.056000000000004 -42.29600000000001L60.196000000000005 -8.84H60.468L67.608 -42.29600000000001Q67.88000000000001 -43.724000000000004 69.24000000000001 -43.724000000000004H75.632Q77.33200000000001 -43.724000000000004 76.992 -42.160000000000004L66.452 -1.4280000000000002Q66.11200000000001 0.0 64.82000000000001 0.0Z" fill="#1A1A1A"/><path d="M93.396 0.0H86.664Q85.984 0.0 85.71199999999999 -0.44200000000000006Q85.44 -0.8840000000000001 85.712 -1.496L96.252 -22.372L86.052 -42.228Q85.78 -42.772000000000006 86.05199999999999 -43.248000000000005Q86.324 -43.724000000000004 87.004 -43.724000000000004H93.532Q95.232 -43.724000000000004 95.776 -42.29600000000001L102.236 -27.676000000000002H102.50800000000001L108.9 -42.29600000000001Q109.58 -43.724000000000004 111.07600000000001 -43.724000000000004H117.74000000000001Q118.42 -43.724000000000004 118.726 -43.214Q119.03200000000001 -42.704 118.76 -42.160000000000004L108.424 -22.372L118.964 -1.564Q119.304 -0.8840000000000001 119.03200000000001 -0.44200000000000006Q118.76 0.0 118.012 0.0H111.212Q109.784 0.0 109.24000000000001 -1.36L102.50800000000001 -16.048000000000002H102.236L95.436 -1.36Q94.824 0.0 93.396 0.0Z" fill="#2563EB"/></g><g transform="translate(45.45,199.86)"><path d="M11.186 0.0H7.48Q4.7940000000000005 0.0 3.3320000000000003 -1.4280000000000002Q1.87 -2.8560000000000003 1.87 -5.542000000000001V-16.32Q1.87 -19.006 3.3320000000000003 -20.434Q4.7940000000000005 -21.862000000000002 7.48 -21.862000000000002H11.186Q13.838000000000001 -21.862000000000002 15.317000000000002 -20.417Q16.796000000000003 -18.972 16.796000000000003 -16.32V-14.722000000000001Q16.796000000000003 -13.974 16.048000000000002 -13.974H13.192Q12.478000000000002 -13.974 12.478000000000002 -14.722000000000001V-16.116Q12.478000000000002 -17.204 12.019000000000002 -17.663Q11.56 -18.122 10.472000000000001 -18.122H8.16Q7.106000000000001 -18.122 6.647 -17.663Q6.188000000000001 -17.204 6.188000000000001 -16.116V-5.746Q6.188000000000001 -4.658 6.647 -4.199Q7.106000000000001 -3.74 8.16 -3.74H10.472000000000001Q11.56 -3.74 12.019000000000002 -4.199Q12.478000000000002 -4.658 12.478000000000002 -5.746V-7.140000000000001Q12.478000000000002 -7.888000000000001 13.192 -7.888000000000001H16.048000000000002Q16.796000000000003 -7.888000000000001 16.796000000000003 -7.140000000000001V-5.542000000000001Q16.796000000000003 -2.89 15.317000000000002 -1.445Q13.838000000000001 0.0 11.186 0.0Z" fill="#E8E8E8"/><path d="M38.452 -3.74H40.866Q41.954 -3.74 42.413 -4.199Q42.872 -4.658 42.872 -5.746V-16.116Q42.872 -17.204 42.413 -17.663Q41.954 -18.122 40.866 -18.122H38.452Q37.364000000000004 -18.122 36.922000000000004 -17.663Q36.480000000000004 -17.204 36.480000000000004 -16.116V-5.746Q36.480000000000004 -4.658 36.922000000000004 -4.199Q37.364000000000004 -3.74 38.452 -3.74ZM41.58 0.0H37.772000000000006Q35.086 0.0 33.623999999999995 -1.4280000000000002Q32.162 -2.8560000000000003 32.162 -5.542000000000001V-16.32Q32.162 -19.006 33.623999999999995 -20.434Q35.086 -21.862000000000002 37.772000000000006 -21.862000000000002H41.58Q44.266000000000005 -21.862000000000002 45.728 -20.434Q47.19 -19.006 47.19 -16.32V-5.542000000000001Q47.19 -2.8560000000000003 45.728 -1.4280000000000002Q44.266000000000005 0.0 41.58 0.0Z" fill="#E8E8E8"/><path d="M66.874 0.0H63.984Q63.27 0.0 63.27 -0.7140000000000001V-21.148000000000003Q63.27 -21.862000000000002 63.984 -21.862000000000002H72.07600000000001Q74.72800000000001 -21.862000000000002 76.224 -20.400000000000002Q77.72 -18.938000000000002 77.72 -16.286V-13.634Q77.72 -9.792000000000002 74.694 -8.534V-8.398000000000001L78.33200000000001 -0.8160000000000001Q78.638 0.0 77.754 0.0H75.0Q74.388 0.0 74.11600000000001 -0.136Q73.84400000000001 -0.272 73.674 -0.7140000000000001L70.274 -8.058H67.99600000000001Q67.58800000000001 -8.058 67.58800000000001 -7.684V-0.7140000000000001Q67.58800000000001 0.0 66.874 0.0ZM67.962 -11.526000000000002H71.294Q72.382 -11.526000000000002 72.892 -11.985000000000001Q73.402 -12.444 73.402 -13.464V-16.116Q73.402 -17.17 72.892 -17.646Q72.382 -18.122 71.294 -18.122H67.962Q67.58800000000001 -18.122 67.58800000000001 -17.748V-11.9Q67.58800000000001 -11.526000000000002 67.962 -11.526000000000002Z" fill="#E8E8E8"/><path d="M102.776 0.0H98.322Q97.608 0.0 97.47200000000001 -0.7140000000000001L92.202 -21.080000000000002Q91.964 -21.862000000000002 92.882 -21.862000000000002H96.078Q96.758 -21.862000000000002 96.894 -21.148000000000003L100.464 -4.42H100.6L104.17 -21.148000000000003Q104.306 -21.862000000000002 104.986 -21.862000000000002H108.182Q109.03200000000001 -21.862000000000002 108.862 -21.080000000000002L103.592 -0.7140000000000001Q103.422 0.0 102.776 0.0Z" fill="#E8E8E8"/><path d="M135.414 0.0H124.296Q123.582 0.0 123.582 -0.7140000000000001V-21.148000000000003Q123.582 -21.862000000000002 124.296 -21.862000000000002H135.414Q136.094 -21.862000000000002 136.094 -21.148000000000003V-18.836000000000002Q136.094 -18.122 135.414 -18.122H128.308Q127.9 -18.122 127.9 -17.748V-13.328000000000001Q127.9 -12.954 128.308 -12.954H134.122Q134.836 -12.954 134.836 -12.24V-9.928Q134.836 -9.214 134.122 -9.214H128.308Q127.9 -9.214 127.9 -8.84V-4.114Q127.9 -3.74 128.308 -3.74H135.414Q136.094 -3.74 136.094 -3.0260000000000002V-0.7140000000000001Q136.094 0.0 135.414 0.0Z" fill="#E8E8E8"/><path d="M154.35000000000002 0.0H150.984Q150.644 0.0 150.508 -0.22100000000000003Q150.372 -0.44200000000000006 150.508 -0.748L155.77800000000002 -11.186L150.67800000000003 -21.114Q150.542 -21.386000000000003 150.678 -21.624000000000002Q150.81400000000002 -21.862000000000002 151.15400000000002 -21.862000000000002H154.418Q155.26800000000003 -21.862000000000002 155.54000000000002 -21.148000000000003L158.77 -13.838000000000001H158.906L162.102 -21.148000000000003Q162.442 -21.862000000000002 163.19000000000003 -21.862000000000002H166.52200000000002Q166.86200000000002 -21.862000000000002 167.01500000000001 -21.607Q167.168 -21.352 167.032 -21.080000000000002L161.864 -11.186L167.13400000000001 -0.782Q167.30400000000003 -0.44200000000000006 167.168 -0.22100000000000003Q167.032 0.0 166.65800000000002 0.0H163.258Q162.544 0.0 162.27200000000002 -0.68L158.906 -8.024000000000001H158.77L155.37 -0.68Q155.06400000000002 0.0 154.35000000000002 0.0Z" fill="#E8E8E8"/></g></svg>